<svg id="Layer_2" data-name="Layer 2" xmlns="http://www.w3.org/2000/svg" viewBox="0 0 99.13 30.84"><defs><style>.cls-1,.cls-3,.cls-5,.cls-6{fill:none;}.cls-1,.cls-2,.cls-4,.cls-5,.cls-6{stroke:#000;}.cls-1,.cls-2,.cls-3,.cls-4,.cls-5,.cls-6{stroke-miterlimit:10;}.cls-3{stroke:red;}.cls-4{stroke-width:0.75px;}.cls-5{stroke-width:0.1px;}.cls-6{stroke-width:0.5px;}</style></defs><polygon points="37.73 3.5 31.51 3.5 31.93 0.49 20.13 0.49 19.78 3.5 0 3.5 0 9.61 19.05 9.61 16.66 30.34 27.77 30.34 30.64 9.61 37.72 9.61 37.73 3.5"/><polygon class="cls-1" points="3.88 15.42 14.04 15.42 11.59 30.34 1.03 30.34 3.88 15.42"/><polygon class="cls-2" points="55.02 30.27 47.35 10.58 35.02 30.27 38.54 30.27 46.22 18.31 48.56 25.24 44.66 25.24 42.84 28.47 49.65 28.47 50.45 30.27 55.02 30.27"/><path class="cls-3" d="M76.83,52.88" transform="translate(-29.94 -23.19)"/><polygon class="cls-2" points="59.26 18.03 62.32 21.83 61.43 30.29 57.97 30.29 59.26 18.03"/><polygon class="cls-2" points="60.09 10.04 61.29 10.04 71.85 22.64 73.17 10.04 76.68 10.04 74.55 30.29 73.52 30.29 59.72 13.63 60.09 10.04"/><path class="cls-4" d="M128.39,37.2a.56.56,0,0,1-.8.43,17.24,17.24,0,0,0-5.83-1.27,7.89,7.89,0,0,0-7.58,7,6.16,6.16,0,0,0,2.72,6.1,7.31,7.31,0,0,0,3.32.88c1.5.11,3.54-.16,3.92-2a.34.34,0,0,1,.32-.28h2.82a.33.33,0,0,1,.33.37l-.29,2.7a.32.32,0,0,1-.12.22,12.73,12.73,0,0,1-8.62,2.27,9.44,9.44,0,0,1-5-2,8.77,8.77,0,0,1-3-6.33,11.88,11.88,0,0,1,4.12-9.34,12.08,12.08,0,0,1,9.46-2.5,15.79,15.79,0,0,1,4.27,1.18.65.65,0,0,1,.31.7C128.59,35.79,128.48,36.58,128.39,37.2Z" transform="translate(-29.94 -23.19)"/><path d="M119.91,42.82a.27.27,0,0,1,.27-.25H128a.21.21,0,0,1,.22.25l-.29,2.68a.28.28,0,0,1-.28.24h-7.82a.22.22,0,0,1-.22-.24Z" transform="translate(-29.94 -23.19)"/><path class="cls-5" d="M119.91,42.82a.27.27,0,0,1,.27-.25H128a.21.21,0,0,1,.22.25l-.29,2.68a.28.28,0,0,1-.28.24h-7.82a.22.22,0,0,1-.22-.24Z" transform="translate(-29.94 -23.19)"/><path d="M76.93,23.74l-.36,3H75.31l.37-3h1.25m.57-.5H75.24l-.49,4H77l.49-4Z" transform="translate(-29.94 -23.19)"/><path d="M82.16,23.74l-1.22,7.32H77.39l.23-.87h2l.08-.4,1.19-6.05h1.3m.59-.5h-2.3l-1.27,6.45H77.24l-.5,1.87h4.62l1.39-8.32Z" transform="translate(-29.94 -23.19)"/><path class="cls-6" d="M91,27.4" transform="translate(-29.94 -23.19)"/><path class="cls-6" d="M98.19,27.4" transform="translate(-29.94 -23.19)"/><path class="cls-6" d="M97.78,29.67" transform="translate(-29.94 -23.19)"/><path class="cls-6" d="M92.63,29.67" transform="translate(-29.94 -23.19)"/><path class="cls-6" d="M92.9,28.3" transform="translate(-29.94 -23.19)"/><path class="cls-6" d="M90.85,28.3" transform="translate(-29.94 -23.19)"/><path d="M97.66,23.71l-.28,1.75-.09.58h5.16l-.15.86H96.14l.6-3.19h.92m.58-.5H96.32l-.78,4.19h7.18l.33-1.86H97.87l.37-2.33Z" transform="translate(-29.94 -23.19)"/><path d="M96.82,28.8l-.15.78-.12.59h5.16l-.15.86H95.37l.42-2.23h1m.6-.5h-2l-.6,3.23H102l.33-1.86H97.16l.26-1.37Z" transform="translate(-29.94 -23.19)"/><polygon class="cls-6" points="73 1.58 72.35 1.58 72.64 0.27 73.29 0.27 73 1.58"/><polygon class="cls-6" points="71.65 1.58 71 1.58 71.28 0.27 71.93 0.27 71.65 1.58"/><path d="M125.14,23.69l-.25,1.1h-7.58l.25-1.1h7.58m.63-.5h-8.61l-.48,2.1h8.6l.49-2.1Z" transform="translate(-29.94 -23.19)"/><path d="M124.49,26.85l-.13.72h-2.24l-.14.28L120.45,31h-2.62l.26-.68h1.49l.14-.28,1.51-3.22h3.26m.6-.5h-4.17l-1.65,3.5h-1.52l-.65,1.68h3.66l1.67-3.46h2.34l.32-1.72Z" transform="translate(-29.94 -23.19)"/></svg>