<svg xmlns="http://www.w3.org/2000/svg" xmlns:xlink="http://www.w3.org/1999/xlink" viewBox="0 0 1274.64 1400.33"><defs><style>.cls-1,.cls-10,.cls-11,.cls-13,.cls-16,.cls-3{fill:none;}.cls-2,.cls-4,.cls-6,.cls-8,.cls-9{fill:#8db25c;}.cls-2{stroke:#dcbc5b;stroke-linecap:round;stroke-width:21px;}.cls-10,.cls-11,.cls-12,.cls-13,.cls-16,.cls-2,.cls-3,.cls-4,.cls-8,.cls-9{stroke-miterlimit:10;}.cls-3,.cls-4,.cls-9{stroke:#8db25c;}.cls-3,.cls-4{stroke-width:13px;}.cls-5{fill:#76913a;}.cls-12,.cls-7{fill:#50723b;}.cls-8{stroke:#2b4b19;stroke-width:0.5px;}.cls-10,.cls-11,.cls-12,.cls-13{stroke:#76913a;}.cls-11{stroke-width:12px;}.cls-13{stroke-width:23px;}.cls-14{fill:#f2e9c9;opacity:0.76;}.cls-15{clip-path:url(#clip-path);}.cls-16{stroke:#f2e9c9;stroke-width:2px;}.cls-17{clip-path:url(#clip-path-2);}.cls-18{clip-path:url(#clip-path-3);}.cls-19{clip-path:url(#clip-path-5);}.cls-20{clip-path:url(#clip-path-6);}.cls-21{clip-path:url(#clip-path-7);}.cls-22{clip-path:url(#clip-path-8);}</style><clipPath id="clip-path" transform="translate(-48.27 -136.97)"><path class="cls-1" d="M591.48,551.69s158.56-256.24,74-307.9S526.17,153,488.6,174.91,423.4,385.42,472.94,461.4C513.27,523.26,510.07,575.18,591.48,551.69Z"/></clipPath><clipPath id="clip-path-2" transform="translate(-48.27 -136.97)"><path class="cls-1" d="M368.05,284.49c9.9-41,59.49-109.58,148.73-76.71s147.16,155,103.32,302.15S322.65,472.36,368.05,284.49Z"/></clipPath><clipPath id="clip-path-3" transform="translate(-48.27 -136.97)"><path class="cls-1" d="M265.21,313.9c28.88-28.86,97.07-98.36,233.64,128.77s-97.93,194-136.22,177S103.13,475.92,265.21,313.9Z"/></clipPath><clipPath id="clip-path-5" transform="translate(-48.27 -136.97)"><path class="cls-1" d="M591.48,551.69c-15.85-24.66-19.38-229,86.33-283.63s232.54,44,229,125.08S797.6,565.79,653.14,602.78C609.1,601,607.34,576.36,591.48,551.69Z"/></clipPath><clipPath id="clip-path-6" transform="translate(-48.27 -136.97)"><path class="cls-1" d="M423.17,796.58c49-16.75,192.85-215,147.38-249.4S378.07,582.65,302,618.73c0,0-36.06,46.93-25.78,87.64,4.95,19.59,46.4,21.91,58,47.68S374.2,813.33,423.17,796.58Z"/></clipPath><clipPath id="clip-path-7" transform="translate(-48.27 -136.97)"><path class="cls-1" d="M558.2,563.22C606,536.59,783,574.43,798.31,631.91s71.41,175.58-6.84,221.35-278.82,22.62-278.19-52.17S510.4,589.85,558.2,563.22Z"/></clipPath><clipPath id="clip-path-8" transform="translate(-48.27 -136.97)"><path class="cls-1" d="M579.31,558S723.16,752.33,840.72,659.11s124.1-153.64,124.1-153.64,5.46-60.17-61.77-47.23S580.78,520.72,579.31,558Z"/></clipPath></defs><g id="small_flower" data-name="small flower"><line class="cls-2" x1="314.97" y1="1107.08" x2="207.08" y2="1004.79"/><line class="cls-2" x1="178.8" y1="1049.76" x2="301.23" y2="1104.83"/><line class="cls-2" x1="233.51" y1="968.51" x2="315.07" y2="1103.43"/><line class="cls-2" x1="315.07" y1="1083.97" x2="273.84" y2="959.21"/><line class="cls-2" x1="322.27" y1="1079.63" x2="307.87" y2="949.03"/><line class="cls-2" x1="340.07" y1="1076.85" x2="353.15" y2="946.1"/><path class="cls-3" d="M446.2,1482.41s-48.75-204.74-72.35-230.33" transform="translate(-48.27 -136.97)"/><path class="cls-4" d="M398.15,1180.44s-.08,52.8-23.53,68.23c-20,13.19-65.33-16.17-65.33-16.17s6.55-28.43,32.57-46.29S398.15,1180.44,398.15,1180.44Z" transform="translate(-48.27 -136.97)"/></g><g id="small_flower_2" data-name="small flower 2"><line class="cls-2" x1="131.69" y1="828.03" x2="239.58" y2="725.73"/><line class="cls-2" x1="267.86" y1="770.7" x2="145.43" y2="825.77"/><line class="cls-2" x1="213.15" y1="689.46" x2="131.59" y2="824.37"/><line class="cls-2" x1="131.59" y1="804.91" x2="172.82" y2="680.15"/><line class="cls-2" x1="124.39" y1="800.58" x2="138.79" y2="669.97"/><line class="cls-2" x1="106.59" y1="797.79" x2="93.52" y2="667.04"/><path class="cls-3" d="M169.34,973c-37.4,53.21-114.68,478.92-114.68,478.92" transform="translate(-48.27 -136.97)"/><path class="cls-4" d="M145.05,901.38s.08,52.8,23.53,68.23c20,13.19,65.32-16.17,65.32-16.17s-6.55-28.43-32.56-46.28S145.05,901.38,145.05,901.38Z" transform="translate(-48.27 -136.97)"/></g><g id="small_flower_leaf" data-name="small flower leaf"><path class="cls-5" d="M154.86,1156.92c10.66,8.89,64.56-23.94,100.06-51.44,29.33-22.72,80.6-50.12,76.89-69.22-1.24-6.41-26.05-35.31-89-14.9S132.42,1138.22,154.86,1156.92Z" transform="translate(-48.27 -136.97)"/><path class="cls-6" d="M84.84,1264.52c3.42-6.49,6.89-12.79,10.43-19.12s7.13-12.6,10.78-18.84q10.94-18.74,22.5-37.09C144,1165,160.27,1141.09,178,1118.19c8.85-11.45,18.07-22.62,27.83-33.32a308.34,308.34,0,0,1,31.27-30.17q4.22-3.45,8.59-6.68c2.94-2.13,5.94-4.18,9-6.12a103.54,103.54,0,0,1,19.48-9.71,57.89,57.89,0,0,1,21.37-3.73,42.62,42.62,0,0,1,20.61,6,42,42,0,0,0-20.62-5.21,56.9,56.9,0,0,0-20.78,4.42A102.55,102.55,0,0,0,256,1043.94q-4.41,3-8.62,6.35t-8.21,6.88a304.45,304.45,0,0,0-29.71,30.91c-9.24,10.94-17.94,22.33-26.27,34-16.67,23.32-31.9,47.65-46.3,72.45q-10.78,18.62-20.91,37.59-5.07,9.48-10,19c-3.25,6.36-6.49,12.81-9.54,19.17Z" transform="translate(-48.27 -136.97)"/></g><g id="small_branch_1" data-name="small branch 1"><g id="right_branch" data-name="right branch"><path class="cls-7" d="M1023.29,1179.22s79.14-80.3,153-34.74C1176.34,1144.48,1132.09,1204.78,1023.29,1179.22Z" transform="translate(-48.27 -136.97)"/><g id="stem_1" data-name="stem 1"><path class="cls-5" d="M888.49,1303.14a141,141,0,0,1,15.47-32.4,201.53,201.53,0,0,1,21.62-28l3-3.22c1-1.07,2-2.16,3.06-3.16l6.29-6.15,6.54-5.86c1.07-1,2.21-1.92,3.34-2.84l3.39-2.79a242.75,242.75,0,0,1,59.75-35.9l8.06-3.29,8.16-3c2.71-1,5.49-1.86,8.23-2.78l4.13-1.35,4.16-1.22q16.63-4.93,33.66-8.23a329.62,329.62,0,0,1,34.21-5,329.6,329.6,0,0,0-33.89,6.42q-16.77,4-33.07,9.62l-4.06,1.39-4,1.51c-2.67,1-5.38,2-8,3.09l-7.92,3.31-7.79,3.58a237.47,237.47,0,0,0-56.75,37.52l-3.16,2.84c-1.06.94-2.12,1.88-3.11,2.89l-6.08,5.93-5.8,6.19c-1,1-1.89,2.1-2.81,3.17l-2.75,3.21A191.86,191.86,0,0,0,913,1276.16a129.4,129.4,0,0,0-13,30.38Z" transform="translate(-48.27 -136.97)"/></g></g></g><g id="small_branch_2" data-name="small branch 2"><path class="cls-8" d="M838.05,843.26s75.24,77.23,93.73,121.82-4.88,70.95-19.57,81.58C887.4,1064.6,802.53,989,838.05,843.26Z" transform="translate(-48.27 -136.97)"/><path class="cls-7" d="M932.81,1150q-8.17-32.24-16.68-64.45t-17.29-64.31c-5.9-21.4-11.91-42.77-18.25-64-3.17-10.64-6.42-21.25-9.87-31.79s-7-21.09-11.61-31.18c5.09,9.88,9.06,20.3,13,30.68s7.66,20.87,11.31,31.37c7.3,21,14.29,42.09,21.14,63.23s13.57,42.33,20.2,63.55,13.16,42.44,19.6,63.74Z" transform="translate(-48.27 -136.97)"/></g><g id="leaf"><path class="cls-6" d="M583.83,1192.9s-201.32-43.62-263.79-222c-35.43-101.23-69-132.8-75.91-139.23-4.18-3.86,1.2,1.33,21.46,6,54,12.32,179.8,19.34,244,175.19,41.38,100.52,60.28,146.3,68.49,166.15C582.55,1189.84,583.83,1192.9,583.83,1192.9Z" transform="translate(-48.27 -136.97)"/><path class="cls-5" d="M331.81,891.89q17.61,26.21,35.92,51.94t37.17,51c12.64,16.8,25.5,33.44,38.83,49.66,6.65,8.12,13.41,16.14,20.37,24s14,15.54,21.44,22.82c1.86,1.81,3.75,3.58,5.62,5.37s3.84,3.44,5.75,5.17L509,1112q12.11,10.2,24.08,20.57c15.95,13.84,31.72,27.93,47.15,42.47s30.54,29.5,44.84,45.59a278.85,278.85,0,0,1,20.45,25.61,120.78,120.78,0,0,1,8.94,14.84,65.22,65.22,0,0,1,3.64,8.77,39.22,39.22,0,0,1,2,11l-23,0a15.94,15.94,0,0,0-.59-4.55,42.62,42.62,0,0,0-2.06-5.94,99.4,99.4,0,0,0-6.61-12.61,260.19,260.19,0,0,0-17.51-24.81c-12.73-16.2-26.69-31.77-41-47s-29.11-30.14-44.12-44.83q-11.25-11-22.68-21.87l-11.47-10.84c-1.94-1.87-3.93-3.69-5.82-5.58s-3.76-3.8-5.61-5.72c-7.36-7.72-14.27-15.76-21-23.9s-13.32-16.43-19.74-24.81c-12.86-16.75-25.2-33.85-37.32-51.09S377.65,962.56,366,945,343,909.74,331.81,891.89Z" transform="translate(-48.27 -136.97)"/></g><g id="small_branch_3" data-name="small branch 3"><path class="cls-7" d="M954,631.91s-15,296.86,78.12,254.64S1044.3,636.44,954,631.91Z" transform="translate(-48.27 -136.97)"/><path class="cls-5" d="M1025.45,935c.71-11.51,1.14-23.22,1.42-34.86s.37-23.32.29-35c-.17-23.33-1-46.66-2.92-69.92s-4.83-46.44-9.84-69.23a261.33,261.33,0,0,0-9.61-33.61c-4-10.92-9-21.6-16-31.05,7.36,9.14,12.85,19.68,17.4,30.5a265.43,265.43,0,0,1,11.12,33.45c6,22.75,10,46,12.89,69.32s4.78,46.8,6,70.28q.87,17.63,1.21,35.27c.21,11.78.3,23.49.07,35.38Z" transform="translate(-48.27 -136.97)"/></g><g id="small_branch_4" data-name="small branch 4"><path class="cls-9" d="M1321.64,829.11c18.45-45-302.14,5.19-272.59,117.15S1303.18,874.08,1321.64,829.11Z" transform="translate(-48.27 -136.97)"/><path class="cls-7" d="M994.88,990.26c11.84-9.35,23.75-18.38,35.79-27.33s24.17-17.73,36.41-26.36c24.5-17.27,49.41-34,75-49.64,12.77-7.85,25.71-15.43,38.87-22.61q9.86-5.42,19.92-10.44c6.7-3.36,13.48-6.58,20.34-9.6,13.72-6,27.78-11.47,42.39-15a104.61,104.61,0,0,1,22.26-3.21l2.81,0,2.82.14,1.4.07c.47,0,.93.11,1.4.17l2.79.36a41.35,41.35,0,0,1,10.66,3.42,40.93,40.93,0,0,0-10.72-3l-2.78-.26c-.46,0-.92-.1-1.38-.13l-1.4,0-2.79-.05-2.78.14a104,104,0,0,0-21.92,3.91c-14.33,4-28.09,9.84-41.5,16.29q-10.07,4.85-19.87,10.21t-19.43,11c-12.83,7.58-25.44,15.54-37.87,23.76-24.86,16.44-49.08,33.86-72.86,51.84q-17.84,13.5-35.32,27.42c-11.65,9.28-23.25,18.71-34.55,28.27Z" transform="translate(-48.27 -136.97)"/><path class="cls-10" d="M1069.59,1061.8" transform="translate(-48.27 -136.97)"/></g><g id="Small_stem" data-name="Small stem"><path id="main_stem" data-name="main stem" class="cls-11" d="M853.69,1508.28s12.5-88.29,40.56-203.44c34.45-141.39,92.34-323.28,179.33-432" transform="translate(-48.27 -136.97)"/></g><g id="small_branch_5" data-name="small branch 5"><path class="cls-12" d="M1191.68,608.6s-68.26,118.92-80.11,152.69-26.85,57.93-7.48,70c8.13,5,87.12-23.76,103.78-70C1231,697.27,1191.68,608.6,1191.68,608.6Z" transform="translate(-48.27 -136.97)"/><path class="cls-5" d="M1068.8,869.2c6.6-8.39,13.1-17.05,19.48-25.73s12.64-17.48,18.79-26.34,12.18-17.81,18.07-26.86,11.65-18.16,17.19-27.42,11-18.59,16.06-28.1,10-19.11,14.46-28.94a303.8,303.8,0,0,0,11.92-30.08,142.12,142.12,0,0,0,6.91-31.6,142.55,142.55,0,0,1-5.48,32A303,303,0,0,1,1175.61,707c-4,10.11-8.51,20-13.21,29.81s-9.69,19.46-14.86,29-10.52,19-16,28.4-11.14,18.67-16.93,27.87-11.68,18.34-17.7,27.4-12.13,18-18.52,27Z" transform="translate(-48.27 -136.97)"/></g><g id="stem"><path class="cls-13" d="M573.51,565.71s114,610.21,61.55,969.93" transform="translate(-48.27 -136.97)"/></g><g id="petal_2" data-name="petal 2"><path class="cls-14" d="M591.48,551.69s158.56-256.24,74-307.9S526.17,153,488.6,174.91,423.4,385.42,472.94,461.4C513.27,523.26,510.07,575.18,591.48,551.69Z" transform="translate(-48.27 -136.97)"/><g class="cls-15"><path class="cls-16" d="M591.48,551.69S673,350.94,666.31,208.14" transform="translate(-48.27 -136.97)"/><path class="cls-16" d="M505.22,137.16s-63.56,422,53.36,447.14" transform="translate(-48.27 -136.97)"/><path class="cls-16" d="M529.35,137.16s-72.93,378.41,32,424.49" transform="translate(-48.27 -136.97)"/></g></g><g id="petal_3" data-name="petal 3"><path class="cls-14" d="M368.05,284.49c9.9-41,59.49-109.58,148.73-76.71s147.16,155,103.32,302.15S322.65,472.36,368.05,284.49Z" transform="translate(-48.27 -136.97)"/><g class="cls-17"><path class="cls-16" d="M384.29,199.14S477.14,315.56,498.85,387.7s53.76,190.59,53.76,190.59" transform="translate(-48.27 -136.97)"/><path class="cls-16" d="M523.22,190.88s49,133.59,56.09,197.83c5,45.45,6.05,177,6.05,177" transform="translate(-48.27 -136.97)"/></g></g><g id="petal_3b" data-name="petal 3b"><path class="cls-14" d="M265.21,313.9c28.88-28.86,97.07-98.36,233.64,128.77s-97.93,194-136.22,177S103.13,475.92,265.21,313.9Z" transform="translate(-48.27 -136.97)"/><g class="cls-18"><path class="cls-16" d="M322.69,267.12S333.25,541.7,558.2,563.22" transform="translate(-48.27 -136.97)"/></g><g class="cls-18"><path class="cls-16" d="M246.73,312.3s86.76,299.51,290.83,270" transform="translate(-48.27 -136.97)"/><path class="cls-16" d="M232,328.08s56.36,322.75,308.36,242.34" transform="translate(-48.27 -136.97)"/></g></g><g id="petal_1" data-name="petal 1"><path class="cls-14" d="M591.48,551.69c-15.85-24.66-19.38-229,86.33-283.63s232.54,44,229,125.08S797.6,565.79,653.14,602.78C609.1,601,607.34,576.36,591.48,551.69Z" transform="translate(-48.27 -136.97)"/><g class="cls-19"><path class="cls-16" d="M781.22,234.78S711,295.33,665.69,388.41c-17.24,35.46-58.35,214.37-58.35,214.37" transform="translate(-48.27 -136.97)"/><path class="cls-16" d="M882.45,288.37S841.6,408.89,798.31,456.42,626.39,631.91,626.39,631.91s27.39-88.67,56.2-175.49S819.33,240.73,819.33,240.73" transform="translate(-48.27 -136.97)"/><path class="cls-16" d="M899.13,319.34c-21.44,56-82.44,178.82-127,218.56S665.8,624.75,665.8,624.75" transform="translate(-48.27 -136.97)"/></g></g><g id="petal_5" data-name="petal 5"><path class="cls-14" d="M570.55,595.64c-24.54-66.52,80-8,122.8-41.45s69.54-86.92,99-64.19S736.36,679.89,681.43,683.9,577.46,614.36,570.55,595.64Z" transform="translate(-48.27 -136.97)"/></g><g id="petal_6" data-name="petal 6"><path class="cls-14" d="M423.17,796.58c49-16.75,192.85-215,147.38-249.4S378.07,582.65,302,618.73c0,0-36.06,46.93-25.78,87.64,4.95,19.59,46.4,21.91,58,47.68S374.2,813.33,423.17,796.58Z" transform="translate(-48.27 -136.97)"/><g class="cls-20"><path class="cls-16" d="M585.23,553.39S449.91,770,339.59,816.57" transform="translate(-48.27 -136.97)"/><path class="cls-16" d="M568.26,532.18S320.36,654.64,282.91,724.47" transform="translate(-48.27 -136.97)"/><path class="cls-16" d="M558.2,524.08S249.64,661.72,206.56,739.65" transform="translate(-48.27 -136.97)"/></g></g><g id="petal_7" data-name="petal 7"><path class="cls-14" d="M558.2,563.22C606,536.59,783,574.43,798.31,631.91s71.41,175.58-6.84,221.35-278.82,22.62-278.19-52.17S510.4,589.85,558.2,563.22Z" transform="translate(-48.27 -136.97)"/><g class="cls-21"><path class="cls-16" d="M552.24,539.45s52.87,119.72,63,232.89c7.55,84.13-15.73,116.54-15.73,116.54" transform="translate(-48.27 -136.97)"/><path class="cls-16" d="M616,530.59S773.05,816,772.12,884.75s-34.16,36-34.16,36" transform="translate(-48.27 -136.97)"/><path class="cls-16" d="M631,524.7s153.2,282,159.73,356.75-27,14.81-27,14.81" transform="translate(-48.27 -136.97)"/></g></g><g id="Layer_9" data-name="Layer 9"><path class="cls-14" d="M579.31,558S723.16,752.33,840.72,659.11s124.1-153.64,124.1-153.64,5.46-60.17-61.77-47.23S580.78,520.72,579.31,558Z" transform="translate(-48.27 -136.97)"/><g class="cls-22"><path class="cls-16" d="M570.55,547.18S652.75,667.23,764,654.08,977.4,484.54,977.4,484.54" transform="translate(-48.27 -136.97)"/><path class="cls-16" d="M579.31,533.73s118.6,135.64,210,98.18S987.52,450.05,987.52,450.05" transform="translate(-48.27 -136.97)"/></g></g></svg>