<svg id="Layer_2" data-name="Layer 2" xmlns="http://www.w3.org/2000/svg" viewBox="0 0 157.83 79.27"><defs><style>.cls-1,.cls-4,.cls-5{fill:none;}.cls-1,.cls-2,.cls-3,.cls-4,.cls-5{stroke:#000;stroke-miterlimit:10;}.cls-3{stroke-width:0.75px;}.cls-4{stroke-width:0.1px;}.cls-5{stroke-width:0.5px;}</style></defs><polygon points="67.67 26.69 61.45 26.69 61.87 23.68 50.07 23.68 49.72 26.69 29.94 26.69 29.94 32.8 48.99 32.8 46.6 53.53 57.71 53.53 60.58 32.8 67.66 32.8 67.67 26.69"/><polygon class="cls-1" points="33.83 38.6 43.98 38.6 41.53 53.53 30.97 53.53 33.83 38.6"/><polygon class="cls-2" points="84.96 53.46 77.28 33.77 64.96 53.46 68.48 53.46 76.16 41.5 78.5 48.43 74.6 48.43 72.78 51.65 79.59 51.65 80.39 53.46 84.96 53.46"/><polygon class="cls-2" points="89.19 41.22 92.26 45.02 91.37 53.48 87.91 53.48 89.19 41.22"/><polygon class="cls-2" points="90.03 33.23 91.23 33.23 101.79 45.83 103.11 33.23 106.62 33.23 104.49 53.48 103.46 53.48 89.66 36.81 90.03 33.23"/><path class="cls-3" d="M128.39,37.2a.56.56,0,0,1-.8.43,17.24,17.24,0,0,0-5.83-1.27,7.89,7.89,0,0,0-7.58,7,6.16,6.16,0,0,0,2.72,6.1,7.31,7.31,0,0,0,3.32.88c1.5.11,3.54-.16,3.92-2a.34.34,0,0,1,.32-.28h2.82a.33.33,0,0,1,.33.37l-.29,2.7a.32.32,0,0,1-.12.22,12.73,12.73,0,0,1-8.62,2.27,9.44,9.44,0,0,1-5-2,8.77,8.77,0,0,1-3-6.33,11.88,11.88,0,0,1,4.12-9.34,12.08,12.08,0,0,1,9.46-2.5,15.79,15.79,0,0,1,4.27,1.18.65.65,0,0,1,.31.7C128.59,35.79,128.48,36.58,128.39,37.2Z"/><path d="M119.91,42.82a.27.27,0,0,1,.27-.25H128a.21.21,0,0,1,.22.25l-.29,2.68a.28.28,0,0,1-.28.24h-7.82a.22.22,0,0,1-.22-.24Z"/><path class="cls-4" d="M119.91,42.82a.27.27,0,0,1,.27-.25H128a.21.21,0,0,1,.22.25l-.29,2.68a.28.28,0,0,1-.28.24h-7.82a.22.22,0,0,1-.22-.24Z"/><path d="M76.93,23.74l-.36,3H75.31l.37-3h1.25m.57-.5H75.24l-.49,4H77l.49-4Z"/><path d="M82.16,23.74l-1.22,7.32H77.39l.23-.87h2l.08-.4,1.19-6.05h1.3m.59-.5h-2.3l-1.27,6.45H77.24l-.5,1.87h4.62l1.39-8.32Z"/><path d="M97.66,23.71l-.28,1.75-.09.58h5.16l-.15.86H96.14l.6-3.19h.92m.58-.5H96.32l-.78,4.19h7.18l.33-1.86H97.87l.37-2.33Z"/><path d="M96.82,28.8l-.15.78-.12.59h5.16l-.15.86H95.37l.42-2.23h1m.6-.5h-2l-.6,3.23H102l.33-1.86H97.16l.26-1.37Z"/><polygon class="cls-5" points="102.94 24.77 102.29 24.77 102.58 23.46 103.23 23.46 102.94 24.77"/><polygon class="cls-5" points="101.59 24.77 100.94 24.77 101.22 23.46 101.87 23.46 101.59 24.77"/><path d="M125.14,23.69l-.25,1.1h-7.58l.25-1.1h7.58m.63-.5h-8.61l-.48,2.1h8.6l.49-2.1Z"/><path d="M124.49,26.85l-.13.72h-2.24l-.14.28L120.45,31h-2.62l.26-.68h1.49l.14-.28,1.51-3.22h3.26m.6-.5h-4.17l-1.65,3.5h-1.52l-.65,1.68h3.66l1.67-3.46h2.34l.32-1.72Z"/></svg>